# xmcd
#
# Track frame offsets:
# 162
# 14037
# 25887
# 38562
# 51387
# 63837
# 78387
# 92787
# 104262
# 114912
# 127962
# 140112
#
# Disc length: 2040 seconds
#
# Revision: 1
# Processed by: cddbd v1.5.1PL2 Copyright (c) Steve Scherf et al.
# Submitted via: CedeCatalogueitor 2.6.0.6 http://personales.ya.com/cdcatalogueitor
#
DISCID=9d07f60c
DTITLE=Jose Feliciano - Antologia
DYEAR=1990
DGENRE=
TTITLE0=Sin Fe
TTITLE1=Escandalo
TTITLE2=La Barca
TTITLE3=Piel Canela
TTITLE4=El Reloj
TTITLE5=Noche De Ronda
TTITLE6=Falsa Moneda
TTITLE7=Una Aventura Mas
TTITLE8=Celoso
TTITLE9=Moliendo Cafe
TTITLE10=La Carcel De Sing - Sing
TTITLE11=Plazos Traicioneros
EXTD=
EXTT0=
EXTT1=
EXTT2=
EXTT3=
EXTT4=
EXTT5=
EXTT6=
EXTT7=
EXTT8=
EXTT9=
EXTT10=
EXTT11=
PLAYORDER=
